<?xml version="1.0" encoding="UTF-8"?>
<svg xmlns="http://www.w3.org/2000/svg" version="1.1" xmlns:xlink="http://www.w3.org/1999/xlink" viewBox="0 0 346.4 400">
  <!-- Generator: Adobe Illustrator 29.3.1, SVG Export Plug-In . SVG Version: 2.1.0 Build 151)  -->
  <defs>
    <style>
      .st0 {
        fill: #ea2121;
        letter-spacing: 0em;
      }

      .st1 {
        font-size: 12px;
      }

      .st1, .st2, .st3 {
        fill: #e8ae38;
      }

      .st1, .st4 {
        font-family: BDNippori-2005, 'BD Nippori';
      }

      .st2 {
        fill-opacity: .4;
      }

      .st4 {
        font-size: 26.5px;
      }

      .st5 {
        fill: none;
        stroke: #3a3a3a;
        stroke-linecap: round;
        stroke-linejoin: round;
        stroke-width: 4px;
      }
    </style>
  </defs>
  <g id="Calque_10">
    <g id="layer3">
      <path id="path1" class="st2" d="M346.4,100v200l-173.2,100L0,300V100L173.2,0l173.2,100Z"/>
    </g>
  </g>
  <g id="Calque_8">
    <g id="path2">
      <image width="402" height="454" transform="translate(-28 -27)" xlink:href="planisphere-1.png"/>
    </g>
    <path id="path21" data-name="path2" class="st5" d="M337.7,105v190l-164.5,95L8.7,295V105L173.2,10l164.5,95Z"/>
    <path class="st3" d="M66,249.1c-17.7,0-32,14.3-32,32s14.3,32,32,32,32-14.3,32-32-14.3-32-32-32ZM79.2,287.3h-9.8l-6.2-8.5h14.9c1.5.1,1.5-3.2,1.5-3.2,0,0,0-3.3-1.5-3.3h-20.9v26.9h-8.4v-35.4h30.7c9.2,0,9.2,11.8,9.2,11.8,0,0,0,11.7-9.4,11.7Z"/>
    <text class="st4" transform="translate(100.2 294.2)"><tspan class="st3" x="0" y="0">LANISPHE</tspan><tspan class="st0" x="165.6" y="0">R</tspan><tspan class="st3" x="189.9" y="0">E</tspan></text>
    <text class="st1" transform="translate(167.6 307.2)"><tspan x="0" y="0">MAP PROJECTIONS</tspan></text>
  </g>
  <g id="Calque_6">
    <path class="st3" d="M330.2,141.6l-1.6-6-2.6-6-3.5-5.9-4.5-5.8-5.5-5.7-1.7-1.8-1.8-1.8-1.8-1.8-1.9-1.8-2-1.8-2.1-1.7-2.2-1.7-2.3-1.7-2.4-1.7-2.5-1.6-2.6-1.6-2.8-1.6-2.9-1.6-3-1.5-3.1-1.5-3.2-1.5-3.4-1.4-3.5-1.4-3.7-1.4-3.9-1.3-4-1.3-4.3-1.2-4.5-1.2-4.8-1.1-5.1-1.1-5.5-1-6-.9-6.8-.8-3.8-.4-18.3-.8h0l-3.5.7-.9.4-1.4.8-1.2.9-1.1,1-1,1.1-1,1.1-.9,1.2-.9,1.2-.8,1.3-.8,1.3-.3.5,1.9-.6-2.3,1.3h0c0,.1-.7,1.5-.7,1.5h.9c0,0,1.5,1.6,1.5,1.6l-.8,2.1-3.1.3-.2,1h2.5c0-.1.4.9.4.9l-3.1.7,1.2,1.5-2.5,1.5-.8.3-.3.8-.5,1.6-.5,1.7-.5,1.7-.4,1.7-.4,1.7-.4,1.8-.4,1.8-.4,1.8-.4,1.8-.3,1.8-.3-1.8-.4-1.8-.4-1.8-.4-1.8-.4-1.8-.4-1.7-.4-1.7-.5-1.7-.5-1.7-.5-1.6-.3-.8-.9.6-2-.6-3,.5-3,.2v1.4c.1,0-1,1.1-1,1.1l-3.7,2.5-1.3-.2-.9,3.2-1.2,2.7.9,1.2,2.5-.7.8.9-2.5.4-.7,1.4-1.4.5,2.4.4v.9c-.1,0-2.2.6-2.2.6l-1.4-1.7-1.9-.8-1.3-1.9-2.7-1.1-2.6,1.3-1.8,5.8-2.1.5-1.7,2,3.3-1,1.4,1.3,2.5-1.7,3.8-.3v1.8s-1.4,2.3-1.4,2.3l-2.2,2.3,2.4.5-3.6,3.9-1.2,3.8-1,.8-2.4-1.3-1.3-3.8-3.2,3.1v2.7s-2.4-4.9-2.4-4.9l-2.7.9-1.1-2.3-5.5.8-4.3-2.3-4.2,3.4h-1.7s4.3-4.8,4.3-4.8v-4c0,0-1.4,0-1.4,0l.2-4.5-2.6-1.1-4.4,1.7-4,3.6.5,3.6,2.2-.2.9,2.7-5.7,1.4.4,5.2-3.4,1.4-1.6,2.8,1.4,4.9h2.2s2.9,2.2,2.9,2.2l-1.2,1.2,3.3,8.4.6,7.2,2,3.8-1.7,5.4-1.2.4,1.4,4.1-.4,2.5,1.8,3.8.2,5.1-3.3,2.6-5.1-.6-5.4,2.6-3.9-.2-.6-1.5-4.3-2.5-2.4,1-7.5-2.1-.7-3.1-1.4,2.5-6-4.4-1.2,1.8-4-1.3-.9,1.8-6.1-.7v-2.1c-.1,0,3.5-3.5,3.5-3.5l1.3.6,3.7-1.4-.3-1,3-2.1,4.9-1.2,5.6-3.2,5.2-4.1-.8-5.9,3.1-7.8.6-3.2,2.9-1.4,2.9-2,2.3.9,3.3-2v-8.6s2.4-4.1,2.4-4.1l.3-3.8,2-4.3-.9-1,2.2-7.1,4.3-3.9,5-5.3,5.5-5-9.1,6.1,4.4-5,7.3-3.8,1.3-1.8,6.1-2.7,4.8-.5,4.1.8.8,1.1,6.3-1.8,8.1.2,7.8-1.2,1-1.9,1.2,1.3.8-3.5,1.9-.9-.3-.5-.8-1.3-.8-1.3-.9-1.2-.9-1.2-1-1.1-1-1.1-1.1-1-1.2-.9-1.4-.8-.9-.4-3.5-.7h0l-18.3.8-3.8.4-6.8.8-6,.9-5.5,1-5.1,1.1-4.8,1.1-4.5,1.2-4.3,1.2-4,1.3-3.9,1.3-3.7,1.4-3.5,1.4-3.4,1.4-3.2,1.5-3.1,1.5-3,1.5-2.9,1.6-2.8,1.6-2.6,1.6-2.5,1.6-2.4,1.7-2.3,1.7-2.2,1.7-2.1,1.7-2,1.8-1.9,1.8-1.8,1.8-1.8,1.8-1.7,1.8-5.8,6-4.7,6.2-3.6,6.3-2.5,6.4-1.4,6.4-.4,6.4.7,6.4,1.2,6.4.5,2.8.6,2.8.7,2.8.8,2.8.9,2.8.8,2.5h.3s-.6-2.3-.6-2.3l.8-1.6-2.1-1.9v-.8c0,0,1.8.8,1.8.8l.7-.5-.7-1.1h3.4c0,0,5,2.4,5,2.4l.4,1.3,2.3,2.2.3-2.4,3.5,4.4,1,2.5,2.3,2.5,4.7-.8,3.6,1.3,1.9,2.1-4.7-2.6-4.7,2.3-2.6-.8-1.9-1.5-.8-1.7-.2,1.3-1.9-1.2v.8s-1.1.5-1.1.5l.6.7-.4,1-1.6.4,1.3,1,.6,1.2,1.9,3,1.5-.3,1.9,1.1,2.7,3.9,4.8,4.7-1.4,1.5-.4,2-3.7-.2,1.4,1.3,3,2.6,3,2.6,3.1,2.6,3.2,2.6,3.3,2.6,3.3,2.6,3.4,2.6,3.4,2.6,3.5,2.6,3.5,2.6,3.5,2.6h0c0,0,7,5.2,7,5.2l2-3.1,1.3-2.1,1.7-2.6,1.7-2.6,1.6-2.6,1.6-2.6,1.6-2.6,1.6-2.6,1.5-2.6,1.5-2.6,1.5-2.6,1.4-2.6,1.4-2.6,1.4-2.6,1.3-2.6,1.3-2.6,1.2-2.6,1.1-2.6.9-2.6.6-2.6.6-2.7.5-2.7.5-2.7.4-2.8.4-2.8.4-2.8.3-2.8.3-2.8.2-2.8.2-2.9.3,2.9.4,2.8.5,2.8.6,2.8.7,2.8.8,2.8.9,2.8.9,2.7,1,2.7,1.1,2.7,1.2,2.6,1.7,2.6,2.2,2.6,2.3,2.6,2.4,2.6,2.5,2.6,2.6,2.6,2.6,2.6,2.7,2.6,2.8,2.6,2.9,2.6,2.9,2.6,3,2.6,3,2.6,3.1,2.6,3.1,2.6,3.1,2.6,3.1,2.6.3.2,6,4.9,4.9-3.9-5,3.7-4.9-8.2-1.4-4.8-3-4.6,1.2-5-2.3-7.2-3.3-4.2.7-4.1-3.8-1.9-1.9-2.5-6.8-.9-5.9-2.2-4.5-5.1-.3-1.8-2.1-4.7,2.3-4.2.4-3.6,5.4-4.1,3.1-.7,1.7-2.6,2.5-1.6,2.4,1.8,2.6-.6,7.3,1.3-1,3.3,3.6,1.8,3,2.4,1.9-2.8,5.8,1.6,4.1-1.7.2-5.8-2.1,1.5h-3.7s-1-3.9-1-3.9l1.3-.8-4.1,1.4,1.1,1.9-1.4,1.7-1.8-5.4-3.5-4.2-.9,1.3,3,4.3-1.1.3-4.1-5.2-3.1.2-2.4,2-3,3.6-2.8-.4-1.8-2,1.7-5.9,1.1-.4,3.6,2,1.1-2.8-1.5-3.1,1.9.6,4.2-3.4,2.3-.5v-2.9c0,0,1.3-1.1,1.3-1.1l-.9,3,2.4,1.1,3.5-1.1,1-4.3-1.1-3.9,1.5-2.9h-1.3s-1.7,3.6-1.7,3.6l.6,2.6-1.6,3.9-1.3.7-.9-4.4h-2.3s.6-3.6.6-3.6l.9-.2,4.6-7.5,2.6-1.3,1.1,1.3,3.6,1.3v1.8c0,0-2.3,0-2.3,0l.9,2.2,2.1-2.9-.3-2.3,1.4,1.4,1.5-3.2.7.4.7-2.7,2.7-.4-2.1-2.1-.5-2.7,4.6,3.7-3.2-3.4h1.2c0,.1-1.1-2.4-1.1-2.4l.5-1.6-1.1-1.4.3-1.9-.9-1.6.7-1.9,1.7-.2,1.6,2.1-.2-5.1.7-1.5,2-.6-.8-2.7h-1.4c0-.1,0-1.7,0-1.7l.7-2-1-1.4,1-1.6-2.8-1.8-1.7-2.5,4.5-4.5,8.2,3.2,4.9-1.3,5.5,1.8-4.2,1.5-2.9-.2-5-1.2-.9.8,2.6.3-.7,1.3,3.8,1,.3,3.4,1.9,2.4,3.8,3,1.4-3.5,4.8,1,5,4.1.2,2.4,3.1,4,4.7.6.7,2.1-3.5-1.4-2.3.9,1.2,2.9-2.1-.9,1.4,3.2,2.1-.4v-2.5s1.5,3.1,1.5,3.1l2.9-.2,4,1.9,4.1,7.1-.2,6-1.2,3.2,1.1,2.2,5.3-.3,1.9,2v5.4c0,0-.8-.9-.8-.9l-4.9,1.9,1.8,2.8,6-.3,2.8,1.3-2.6,1.8-5.6-.9-3-3.3-2.8-1.4-1.4,3.2-2.9-2.2h-2.9c0,0-1.5,3.1-1.5,3.1l-1,10.3,2.7,4.2-1.7,3.5-6-3-3.8-4.1-.3,2.2-5.6-.9-6.5,4.6-5.2.7-1.7-1.5-1.5,1,4.2,3.7,2.4-.9.7-2.7,4.3,1.5-.3,3.8-6,9-3.8,3.3-2-3-8.8-9.1-1.3.4,3.8,5.2.9,2.6,2.9,3,5.3,2.7,6-4.5-1.1,7.9-7.2,9.8-1.2,3.4,2.2,2.9v5s-5.4,5.6-5.4,5.6l1,3.2-2.4,2.1v2.2c0,0-4.2,5.9-4.2,5.9l2.2-1.7,3.2-2.6,3.2-2.6,3.2-2.6,3.1-2.6,3.1-2.6,3-2.6,2.9-2.6,2.9-2.6,2.8-2.6,2.7-2.6,2.6-2.6,2.5-2.6,2.4-2.6,2.3-2.6,2.2-2.6,1.7-2.6,1.2-2.6,1.1-2.7,1.1-2.7,1-2.7.9-2.8.8-2.8.7-2.8.6-2.8.5-2.8.4-2.8.4-2.9v2.9c.1,0,.3,2.8.3,2.8l.2,2.8.2,2.8.3,2.8.3,2.8.3,2.8.3,2.7.4,2.7.4,2.7.4,2.6.6,2.6.8,2.6.8,2.6.9,2.6.9,2.6,1,2.6,1,2.6,1,2.6,1,2.6,1.1,2.6,1.1,2.6,1.1,2.6,1.1,2.6,1.1,2.6,1.2,2.6,1.2,2.6.8,1.7.2.2.8,1.9.6,1.4.2.3,1,2.3,6.8-5.1h.1c0,0,3.5-2.7,3.5-2.7l3.4-2.6,3.4-2.6,3.4-2.6,3.3-2.6,3.3-2.6,3.2-2.6,3.2-2.6,3.1-2.6,3-2.6,2.9-2.6,1.4-1.3-1.8-.2-2.7.5-1.4,1.1v-1.4s-5.6,0-5.6,0l-.6-1.3,1.9-2.1.6-3.3,3.4-1.1,2.5-.5-2.9-.3-1.6-1.5-.3-1.9,1.7-7.5,1.8-2.4v-1.4c-.1,0,2.4-1.6,2.4-1.6l2-4.9,4-3.7h2.2c0-.1,3.8-2,3.8-2l2.7-.3,1,1.8-1.1,1.5-.2,1.7,1.6,2.3-.9,1,.5,1.9,1.5.9,1.3.7-.4,5.4h0l.4-5.4h.6s.5-1.4.5-1.4h1.1c0,0,.8-2.4.8-2.4l.8-2.8.7-2.8.7-2.8.6-2.8.5-2.8.4-2.9,1.2-6.1.3-6.1-.7-6.1ZM41.7,184.3l-2-.5v-1.5c0,0,1,.7,1,.7l2.1.3-1.1,1ZM33.4,186l1.1,1.1-1.3-.2v-1ZM36.7,190.4l-2.1-.6-1-1.8,3.1,1.4v1ZM55.3,180.8l-.3-2.6h1.6s-1.2,2.6-1.2,2.6ZM107.5,136.1l1.1-1.9.6,4.8-1.7-2.9ZM108.4,133.2l-1.2-2.8,1.6-5,.6.8-1.1,7ZM137.9,132l-1.2,1.2-.9-4.5,3.7.2-1.6,3.1ZM166.3,111l.4,1.5-.7,1.2-2.6-1.4-2-.9h-.8c0,.1.5-1.9.5-1.9l2,.5,2.3-.3,1,1.4ZM159.7,107.8l1.2-.2-1.3,1.3-.3,2.1-1-.6v-2.1c0,0,1.4-.5,1.4-.5ZM159.2,106.4l1.7-.7v1.1c0,0-1.7-.4-1.7-.4ZM165.8,109.2l-2.3.4-1.5-1.1,1.7-.4,2.1,1ZM162.5,101.8l.7,1.4-.9.2.2-1.6ZM162.6,106.3l1,.5-1.6.3.6-.8ZM161.6,104.8h-1.4c0,.1-.4-2.1-.4-2.1l1.3-.5.7,1.2-1.2.2.9,1.1ZM159.8,98.6l1.7,1.8-2.2,1.3-.8-3.1h1.2ZM153.7,103.7v-.6c0,0,1-3.2,1-3.2l1.9-.5,1,1.1,1-.4.4,1.8-1.2,2.2-4.2-.4ZM155.6,105.2l2.3-.2v1.2c0,0-2.3-1.1-2.3-1.1ZM158.1,106.8l-.3,1.3-2.1-1.2h2.4ZM150,109.4l-1.5,1.2-.3-1.6,1.8.4ZM147.1,119.3l.2-2.2,1.5-2.4.2-2.1.9,1.5,2.7-.2,1.9-2.5-.6-1,.6-2.2h2.7c0,.1.5,2.3.5,2.3l-1.4.3.6.8-.8,1.3-1.1,1.9-2.1,1.5-.9,1.9-1.7-.2v-1.4c.1,0-3.2,2.6-3.2,2.6ZM157.3,148.1l.7-1.5,2.5-.8-1.3,3.1-1.9-.9ZM158.3,133.9l.2-1.6,2.7.4.3,1.7-1.6.8-1.6-1.3ZM162.4,151.8l-3.2-.7,2.5-3.4-.7-3.5,1.1-1.5,1.1,1.8-.5,2,.9,3.8-1.2,1.5ZM167.6,120l-.6,1-1,1.7-2.5,2.9-1.2-.9v2.3c-.1,0-1.8-.8-1.8-.8l.8,1.8-1.8.3-1.7-.9-2.4.4-1.7-1-4.2,2.6-.4-3,3.9-5.3,2.7-.4.4-1.6,2.1-1.5,2.1-2-.2-2.1,2.3-1.3.9,1.1.4-.5,1.7.9,1.3,1,.3.9,1.7.4.2,1.6-.6.9.7.9-1.2.3ZM172.5,125.9l-.9-3.2,1-.2.7,1.2-.8,2.3ZM173.5,123.3l-.6-1,1.4.2-.8.8ZM177.9,121.5l-.3-1.2.8-.9.2,1.9-.7.2ZM187.5,106l-.9.8-.3-1.9,1.2,1.1ZM181.5,114.4l.4,1.1-1.1-1h.7ZM182.5,129.2l-1.2-2.8v-2.6s.7-1.6.7-1.6v1.7c0,0,.4,3.5.4,3.5l1.3,1.1-1.2.7ZM183.5,115.9h-.9c0,0-.3-1.1-.3-1.1l1.5.2-.3.8ZM183.2,114.5l.6-.5.8,1.5-1.4-1ZM185.3,93.9l-1.8-3.5,2.3-1.2.4,1.4,1.7.4-2.6,2.9ZM207,100.9l5-.8,3.7,1.8-8.7-.9ZM216.1,101.9l2-2,1.9,3.2-3.9-1.3ZM226.2,108.6l-2.5-3.5-3.3-2.1,1.8-.2,3.9,1.9.9,3.3.3,4.7-1.1-4.2ZM245.3,131.3l-4.1-2.9,4.2,1v1.9ZM206.5,214.8l-3.9,2.4-1.7-.9v-3.5s5.5-7.3,5.5-7.3l2,1.5-1.8,7.9ZM253.7,132.6l-2.9.7v-4.3c0,0,2.9,3.6,2.9,3.6ZM248.9,158.5l-4.5-.6-4.3.8,2.8-1.9,5.7-2.4h3.7c0,.1.8,3.1.8,3.1l-4.2,1ZM250.9,149.6l.3-2.7-1.5-8.1,2.4-1.1.2,2.1,2.7,1.9,2.5,4.4-3.3,4.7-3.4-1.1ZM255.3,156.7l-1.1-.5,5.8-6.2.7.5-5.4,6.2ZM264.7,130.8l-3.5.3.7-2.4,2.8.5-1.1-3.2,3.5-3.6,3.4-.9,1.4,1.3,4.1-.2-3.8,1.5v3.5c.1,0-2.6,1.5-2.6,1.5l-2.3-.7-2.7,2.3ZM293.2,150.6l-4.5-1.5.2,2.2-2.2-.7-2.2,1.3-2.2,4.1-.4,3-1.7,4.3-1.8,2.1-1.7-2-3.9-1.2-3.6-2.5.5-3.9,1.6-4-1-2.5-.2-6.5,1.5-1.3-1-2.8,2.4-4.7,1.3,2.9,4.3-1.4-.8-2.3-4.3-4.8,7.5,2.5,9.9,2.1,2.5,2.2,4.4,9.5-.9,3.1-3.8,2.5ZM298.4,151.5l-1.6-1.2,2.4-1.8,1,2.1-1.7.9ZM312.2,145.2h-1.4c0-.1.3-6.8.3-6.8l1.7.2.2,5.2-.9,1.4ZM313.3,138.1l-2.1-1.7-1.1-3,2.7-.2.5,3v1.9Z"/>
  </g>
</svg>